<svg width="267" height="172" viewBox="0 0 267 172" fill="none" xmlns="http://www.w3.org/2000/svg">
<path d="M43.44 48.56C43.44 53.2 41.84 57.0667 38.64 60.16C35.4933 63.2 30.6667 64.72 24.16 64.72H13.44V88H6.16V32.24H24.16C30.4533 32.24 35.2267 33.76 38.48 36.8C41.7867 39.84 43.44 43.76 43.44 48.56ZM24.16 58.72C28.2133 58.72 31.2 57.84 33.12 56.08C35.04 54.32 36 51.8133 36 48.56C36 41.68 32.0533 38.24 24.16 38.24H13.44V58.72H24.16ZM71.6081 88.72C67.5015 88.72 63.7681 87.7867 60.4081 85.92C57.1015 84.0533 54.4881 81.4133 52.5681 78C50.7015 74.5333 49.7681 70.5333 49.7681 66C49.7681 61.52 50.7281 57.5733 52.6481 54.16C54.6215 50.6933 57.2881 48.0533 60.6481 46.24C64.0081 44.3733 67.7681 43.44 71.9281 43.44C76.0881 43.44 79.8481 44.3733 83.2081 46.24C86.5681 48.0533 89.2081 50.6667 91.1281 54.08C93.1015 57.4933 94.0881 61.4667 94.0881 66C94.0881 70.5333 93.0748 74.5333 91.0481 78C89.0748 81.4133 86.3815 84.0533 82.9681 85.92C79.5548 87.7867 75.7681 88.72 71.6081 88.72ZM71.6081 82.32C74.2215 82.32 76.6748 81.7067 78.9681 80.48C81.2615 79.2533 83.1015 77.4133 84.4881 74.96C85.9281 72.5067 86.6481 69.52 86.6481 66C86.6481 62.48 85.9548 59.4933 84.5681 57.04C83.1815 54.5867 81.3681 52.7733 79.1281 51.6C76.8881 50.3733 74.4615 49.76 71.8481 49.76C69.1815 49.76 66.7281 50.3733 64.4881 51.6C62.3015 52.7733 60.5415 54.5867 59.2081 57.04C57.8748 59.4933 57.2081 62.48 57.2081 66C57.2081 69.5733 57.8481 72.5867 59.1281 75.04C60.4615 77.4933 62.2215 79.3333 64.4081 80.56C66.5948 81.7333 68.9948 82.32 71.6081 82.32ZM100.94 66C100.94 61.4667 101.847 57.52 103.66 54.16C105.473 50.7467 107.98 48.1067 111.18 46.24C114.433 44.3733 118.14 43.44 122.3 43.44C127.687 43.44 132.113 44.7467 135.58 47.36C139.1 49.9733 141.42 53.6 142.54 58.24H134.7C133.953 55.5733 132.487 53.4667 130.3 51.92C128.167 50.3733 125.5 49.6 122.3 49.6C118.14 49.6 114.78 51.04 112.22 53.92C109.66 56.7467 108.38 60.7733 108.38 66C108.38 71.28 109.66 75.36 112.22 78.24C114.78 81.12 118.14 82.56 122.3 82.56C125.5 82.56 128.167 81.8133 130.3 80.32C132.433 78.8267 133.9 76.6933 134.7 73.92H142.54C141.367 78.4 139.02 82 135.5 84.72C131.98 87.3867 127.58 88.72 122.3 88.72C118.14 88.72 114.433 87.7867 111.18 85.92C107.98 84.0533 105.473 81.4133 103.66 78C101.847 74.5867 100.94 70.5867 100.94 66ZM176.734 88L159.534 68.64V88H152.254V28.8H159.534V63.6L176.414 44.16H186.574L165.934 66L186.654 88H176.734ZM233.426 64.4C233.426 65.7867 233.346 67.2533 233.186 68.8H198.146C198.412 73.12 199.879 76.5067 202.546 78.96C205.266 81.36 208.546 82.56 212.386 82.56C215.532 82.56 218.146 81.84 220.226 80.4C222.359 78.9067 223.852 76.9333 224.706 74.48H232.546C231.372 78.6933 229.026 82.1333 225.506 84.8C221.986 87.4133 217.612 88.72 212.386 88.72C208.226 88.72 204.492 87.7867 201.186 85.92C197.932 84.0533 195.372 81.4133 193.506 78C191.639 74.5333 190.706 70.5333 190.706 66C190.706 61.4667 191.612 57.4933 193.426 54.08C195.239 50.6667 197.772 48.0533 201.026 46.24C204.332 44.3733 208.119 43.44 212.386 43.44C216.546 43.44 220.226 44.3467 223.426 46.16C226.626 47.9733 229.079 50.48 230.786 53.68C232.546 56.8267 233.426 60.4 233.426 64.4ZM225.906 62.88C225.906 60.1067 225.292 57.7333 224.066 55.76C222.839 53.7333 221.159 52.2133 219.026 51.2C216.946 50.1333 214.626 49.6 212.066 49.6C208.386 49.6 205.239 50.7733 202.626 53.12C200.066 55.4667 198.599 58.72 198.226 62.88H225.906ZM251.915 50.16V76C251.915 78.1333 252.368 79.6533 253.275 80.56C254.182 81.4133 255.755 81.84 257.995 81.84H263.355V88H256.795C252.742 88 249.702 87.0667 247.675 85.2C245.648 83.3333 244.635 80.2667 244.635 76V50.16H238.955V44.16H244.635V33.12H251.915V44.16H263.355V50.16H251.915Z" fill="white"/>
<path d="M37.6172 85.4141C39.8828 85.4141 41.901 86.1042 43.6719 87.4844C45.4688 88.8385 46.9792 90.9219 48.2031 93.7344C49.4531 96.5208 50.3906 100.049 51.0156 104.32C51.6667 108.565 51.9922 113.591 51.9922 119.398C51.9922 120.076 51.9792 120.74 51.9531 121.391C51.9271 122.042 51.9141 122.706 51.9141 123.383L53.2031 121.781L54.8047 122.992L51.7578 126.43C50.9245 133.982 49.7396 140.544 48.2031 146.117C46.6667 151.69 44.9089 156.326 42.9297 160.023C40.9505 163.721 38.8281 166.469 36.5625 168.266C34.3229 170.089 32.0573 171 29.7656 171C28.8281 171 27.9818 170.805 27.2266 170.414C26.4714 170.049 25.8203 169.542 25.2734 168.891C24.7266 168.24 24.3099 167.471 24.0234 166.586C23.737 165.727 23.5938 164.802 23.5938 163.812C23.5938 161.312 24.1406 158.747 25.2344 156.117C26.3281 153.513 27.8255 150.805 29.7266 147.992C31.6536 145.18 33.9323 142.263 36.5625 139.242C39.1927 136.221 42.0443 133.044 45.1172 129.711C45.2474 127.341 45.3646 124.906 45.4688 122.406C45.5729 119.906 45.625 117.172 45.625 114.203C45.625 109.073 45.4297 104.789 45.0391 101.352C44.6745 97.9141 44.1406 95.1667 43.4375 93.1094C42.7344 91.026 41.888 89.5547 40.8984 88.6953C39.9089 87.8359 38.8151 87.4062 37.6172 87.4062C36.0286 87.4062 34.4401 88.1224 32.8516 89.5547C31.2891 90.9609 29.8828 93.0182 28.6328 95.7266C27.3828 98.4089 26.3672 101.716 25.5859 105.648C24.8047 109.555 24.4141 114.008 24.4141 119.008C24.4141 121.638 24.6224 123.865 25.0391 125.688C25.4557 127.51 26.0156 128.995 26.7188 130.141C27.4219 131.26 28.2292 132.081 29.1406 132.602C30.0521 133.122 31.0026 133.383 31.9922 133.383C33.3984 133.383 34.6875 132.914 35.8594 131.977C37.0312 131.013 38.0469 129.737 38.9062 128.148C39.7656 126.56 40.4297 124.737 40.8984 122.68C41.3672 120.622 41.6016 118.487 41.6016 116.273C41.6016 115.648 41.5755 115.062 41.5234 114.516C41.4974 113.969 41.4583 113.487 41.4062 113.07C41.3281 112.602 41.263 112.172 41.2109 111.781L43.2031 111.391C43.2552 111.729 43.3203 112.133 43.3984 112.602C43.4505 113.018 43.4896 113.526 43.5156 114.125C43.5677 114.698 43.5938 115.388 43.5938 116.195C43.5938 118.591 43.3073 120.948 42.7344 123.266C42.1615 125.557 41.3411 127.602 40.2734 129.398C39.2057 131.195 37.9036 132.654 36.3672 133.773C34.8568 134.867 33.138 135.414 31.2109 135.414C29.1016 135.414 27.2266 134.984 25.5859 134.125C23.9714 133.24 22.5911 131.99 21.4453 130.375C20.3255 128.734 19.4661 126.755 18.8672 124.438C18.2943 122.094 18.0078 119.477 18.0078 116.586C18.0078 113.721 18.2812 110.961 18.8281 108.305C19.401 105.648 20.1693 103.174 21.1328 100.883C22.0964 98.5651 23.2161 96.4557 24.4922 94.5547C25.7943 92.6536 27.1615 91.026 28.5938 89.6719C30.0521 88.3177 31.5495 87.276 33.0859 86.5469C34.6484 85.7917 36.1589 85.4141 37.6172 85.4141ZM31.2109 168.617C31.8099 168.617 32.513 168.422 33.3203 168.031C34.1536 167.667 35.013 166.99 35.8984 166C36.7839 165.01 37.6823 163.656 38.5938 161.938C39.5052 160.245 40.3646 158.083 41.1719 155.453C41.9792 152.823 42.7083 149.659 43.3594 145.961C44.0104 142.263 44.5182 137.94 44.8828 132.992C42.1484 136.091 39.7135 138.891 37.5781 141.391C35.4427 143.865 33.6328 146.234 32.1484 148.5C30.6641 150.766 29.5312 152.992 28.75 155.18C27.9948 157.393 27.6172 159.737 27.6172 162.211C27.6172 164.086 27.9297 165.622 28.5547 166.82C29.2057 168.018 30.0911 168.617 31.2109 168.617ZM90.7812 134.594L90.3516 135.414C89.4661 137.185 88.2812 138.604 86.7969 139.672C85.3385 140.714 83.75 141.391 82.0312 141.703C81.5625 143.031 80.9505 144.268 80.1953 145.414C79.4661 146.534 78.6198 147.51 77.6562 148.344C76.7188 149.177 75.651 149.828 74.4531 150.297C73.2812 150.766 72.0052 151 70.625 151C68.6198 151 66.8099 150.583 65.1953 149.75C63.6068 148.891 62.2526 147.745 61.1328 146.312C60.013 144.854 59.1536 143.161 58.5547 141.234C57.9557 139.281 57.6562 137.198 57.6562 134.984C57.6562 133.057 57.8776 131.312 58.3203 129.75C58.763 128.161 59.3229 126.755 60 125.531C60.6771 124.281 61.4323 123.201 62.2656 122.289C63.099 121.352 63.9193 120.583 64.7266 119.984C65.5339 119.385 66.263 118.943 66.9141 118.656C67.5911 118.344 68.099 118.188 68.4375 118.188L68.9453 119.555C67.8776 120.336 66.9271 121.43 66.0938 122.836C65.3646 124.034 64.7005 125.622 64.1016 127.602C63.5286 129.581 63.2422 132.042 63.2422 134.984C63.2422 136.781 63.4115 138.526 63.75 140.219C64.0885 141.911 64.5833 143.409 65.2344 144.711C65.8854 146.013 66.6797 147.055 67.6172 147.836C68.5807 148.617 69.6615 149.008 70.8594 149.008C72.5 149.008 73.8542 148.357 74.9219 147.055C76.0156 145.727 76.8229 143.917 77.3438 141.625C75.9896 141.339 74.7005 140.805 73.4766 140.023C72.2526 139.242 71.1719 138.279 70.2344 137.133C69.2969 135.961 68.5417 134.62 67.9688 133.109C67.4219 131.599 67.1484 129.958 67.1484 128.188C67.1484 126.729 67.3307 125.453 67.6953 124.359C68.0859 123.24 68.5938 122.315 69.2188 121.586C69.8438 120.831 70.5599 120.271 71.3672 119.906C72.2005 119.516 73.0729 119.32 73.9844 119.32C75.0521 119.32 76.1458 119.633 77.2656 120.258C78.3854 120.857 79.401 121.768 80.3125 122.992C81.224 124.19 81.9661 125.701 82.5391 127.523C83.112 129.346 83.3984 131.469 83.3984 133.891C83.3984 134.802 83.3464 135.701 83.2422 136.586C83.138 137.471 82.9818 138.331 82.7734 139.164C84.0234 138.799 85.1562 138.214 86.1719 137.406C87.2135 136.599 88.0729 135.531 88.75 134.203L89.1797 133.383L90.7812 134.594ZM69.7266 127.875C69.7266 129.411 69.9349 130.831 70.3516 132.133C70.7943 133.409 71.3802 134.542 72.1094 135.531C72.8385 136.495 73.6849 137.302 74.6484 137.953C75.612 138.604 76.6406 139.06 77.7344 139.32C77.8646 138.591 77.9427 137.836 77.9688 137.055C78.0208 136.247 78.0469 135.427 78.0469 134.594C78.0469 132.745 77.9036 131.078 77.6172 129.594C77.3307 128.083 76.9531 126.807 76.4844 125.766C76.0156 124.698 75.4688 123.878 74.8438 123.305C74.2188 122.732 73.5807 122.445 72.9297 122.445C72.0443 122.445 71.2891 122.927 70.6641 123.891C70.0391 124.828 69.7266 126.156 69.7266 127.875ZM105.234 142.523C105.104 142.732 104.909 143.096 104.648 143.617C104.414 144.112 104.102 144.672 103.711 145.297C103.346 145.922 102.904 146.573 102.383 147.25C101.888 147.927 101.315 148.539 100.664 149.086C100.013 149.633 99.2839 150.089 98.4766 150.453C97.6953 150.818 96.8229 151 95.8594 151C95.1042 151 94.3229 150.844 93.5156 150.531C92.7083 150.219 91.9531 149.646 91.25 148.812C90.5729 147.979 90.013 146.846 89.5703 145.414C89.1276 143.956 88.9062 142.081 88.9062 139.789C88.9062 137.602 88.9844 135.414 89.1406 133.227C89.2969 131.013 89.4792 128.995 89.6875 127.172C89.9219 125.349 90.1432 123.826 90.3516 122.602C90.5599 121.378 90.7161 120.635 90.8203 120.375C90.9245 120.141 91.1328 119.932 91.4453 119.75C91.7578 119.568 92.1094 119.424 92.5 119.32C92.9167 119.216 93.3333 119.138 93.75 119.086C94.1927 119.034 94.5703 119.008 94.8828 119.008C95.2995 119.008 95.625 119.112 95.8594 119.32C96.1198 119.529 96.25 119.88 96.25 120.375C96.25 120.609 96.1979 121.078 96.0938 121.781C96.0156 122.458 95.9115 123.292 95.7812 124.281C95.651 125.271 95.5078 126.365 95.3516 127.562C95.2214 128.76 95.0911 129.984 94.9609 131.234C94.8307 132.458 94.7135 133.682 94.6094 134.906C94.5312 136.104 94.4922 137.198 94.4922 138.188C94.4922 141.026 94.7917 143.135 95.3906 144.516C96.0156 145.896 97.0312 146.586 98.4375 146.586C99.6354 146.586 100.846 145.714 102.07 143.969C103.32 142.224 104.401 139.685 105.312 136.352C105.443 134.945 105.56 133.448 105.664 131.859C105.794 130.245 105.911 128.721 106.016 127.289C106.12 125.831 106.211 124.529 106.289 123.383C106.393 122.237 106.484 121.417 106.562 120.922C106.641 120.557 106.849 120.258 107.188 120.023C107.526 119.763 107.904 119.568 108.32 119.438C108.763 119.281 109.18 119.177 109.57 119.125C109.987 119.047 110.299 119.008 110.508 119.008C110.951 119.008 111.25 119.112 111.406 119.32C111.589 119.503 111.68 119.802 111.68 120.219C111.68 120.583 111.641 121.286 111.562 122.328C111.51 123.344 111.432 124.542 111.328 125.922C111.25 127.276 111.159 128.734 111.055 130.297C110.951 131.859 110.846 133.37 110.742 134.828C110.664 136.26 110.586 137.562 110.508 138.734C110.456 139.906 110.43 140.792 110.43 141.391C110.43 143.161 110.521 144.555 110.703 145.57C110.911 146.586 111.354 147.094 112.031 147.094C112.526 147.094 113.06 146.781 113.633 146.156C114.232 145.505 114.87 144.607 115.547 143.461C116.25 142.315 117.005 140.961 117.812 139.398C118.62 137.81 119.492 136.078 120.43 134.203L120.82 133.383L122.422 134.594L122.031 135.414C120.781 137.888 119.674 140.102 118.711 142.055C117.773 143.982 116.875 145.609 116.016 146.938C115.156 148.266 114.284 149.281 113.398 149.984C112.513 150.661 111.523 151 110.43 151C109.414 151 108.568 150.805 107.891 150.414C107.24 150.023 106.719 149.464 106.328 148.734C105.938 148.005 105.651 147.12 105.469 146.078C105.312 145.036 105.234 143.852 105.234 142.523ZM120.469 134.203L120.859 133.383C121.25 132.602 121.602 131.794 121.914 130.961C122.253 130.128 122.539 129.346 122.773 128.617C123.008 127.862 123.19 127.198 123.32 126.625C123.451 126.026 123.542 125.57 123.594 125.258C122.917 125.18 122.266 125.01 121.641 124.75C121.016 124.49 120.469 124.138 120 123.695C119.531 123.253 119.167 122.732 118.906 122.133C118.62 121.534 118.477 120.857 118.477 120.102C118.477 119.503 118.581 118.969 118.789 118.5C118.997 118.031 119.284 117.641 119.648 117.328C119.987 117.016 120.378 116.781 120.82 116.625C121.237 116.443 121.68 116.352 122.148 116.352C122.773 116.352 123.32 116.482 123.789 116.742C124.258 117.003 124.648 117.354 124.961 117.797C125.273 118.214 125.508 118.708 125.664 119.281C125.82 119.828 125.898 120.401 125.898 121C126.628 121 127.409 120.896 128.242 120.688C129.102 120.479 129.961 120.258 130.82 120.023C131.68 119.763 132.526 119.529 133.359 119.32C134.193 119.112 134.961 119.008 135.664 119.008C136.263 119.008 136.745 119.138 137.109 119.398C137.474 119.633 137.656 120.036 137.656 120.609C137.656 121.026 137.526 121.716 137.266 122.68C137.031 123.643 136.732 124.763 136.367 126.039C136.003 127.315 135.599 128.708 135.156 130.219C134.74 131.703 134.349 133.214 133.984 134.75C133.62 136.26 133.307 137.732 133.047 139.164C132.812 140.596 132.695 141.872 132.695 142.992C132.695 144.398 132.852 145.349 133.164 145.844C133.477 146.339 134.036 146.586 134.844 146.586C135.182 146.586 135.599 146.443 136.094 146.156C136.615 145.844 137.24 145.258 137.969 144.398C138.698 143.513 139.557 142.263 140.547 140.648C141.562 139.008 142.734 136.859 144.062 134.203L144.453 133.383L146.055 134.594L145.664 135.414C144.102 138.539 142.708 141.104 141.484 143.109C140.26 145.115 139.128 146.703 138.086 147.875C137.07 149.047 136.107 149.867 135.195 150.336C134.284 150.779 133.372 151 132.461 151C130.924 151 129.674 150.414 128.711 149.242C127.747 148.07 127.266 146.26 127.266 143.812C127.266 142.484 127.448 141.104 127.812 139.672C128.177 138.24 128.633 136.82 129.18 135.414C129.727 133.982 130.339 132.576 131.016 131.195C131.693 129.815 132.331 128.513 132.93 127.289C133.555 126.039 134.115 124.88 134.609 123.812C135.104 122.745 135.456 121.807 135.664 121L135.43 120.766C135.013 120.766 134.453 120.987 133.75 121.43C133.047 121.872 132.253 122.38 131.367 122.953C130.508 123.5 129.583 124.021 128.594 124.516C127.604 125.01 126.602 125.31 125.586 125.414C125.534 125.779 125.417 126.312 125.234 127.016C125.078 127.719 124.857 128.5 124.57 129.359C124.284 130.219 123.958 131.104 123.594 132.016C123.229 132.927 122.852 133.786 122.461 134.594L122.07 135.414L120.469 134.203ZM122.383 118.539C122.148 118.539 121.953 118.617 121.797 118.773C121.641 118.93 121.562 119.112 121.562 119.32C121.562 119.633 121.641 119.906 121.797 120.141C121.953 120.349 122.148 120.531 122.383 120.688C122.617 120.818 122.852 120.922 123.086 121C123.346 121.052 123.568 121.078 123.75 121.078C123.75 120.349 123.633 119.75 123.398 119.281C123.164 118.786 122.826 118.539 122.383 118.539ZM159.492 121.703C158.763 121.703 157.943 122.029 157.031 122.68C156.146 123.331 155.247 124.177 154.336 125.219C153.424 126.234 152.539 127.38 151.68 128.656C150.846 129.932 150.117 131.195 149.492 132.445C149.414 134.737 149.336 137.237 149.258 139.945C149.206 142.654 149.18 145.544 149.18 148.617C149.18 149.008 148.997 149.359 148.633 149.672C148.294 149.958 147.891 150.206 147.422 150.414C146.953 150.596 146.471 150.74 145.977 150.844C145.482 150.948 145.078 151 144.766 151C144.375 151 144.01 150.883 143.672 150.648C143.333 150.414 143.164 149.893 143.164 149.086C143.164 148.695 143.203 148.214 143.281 147.641C143.359 147.042 143.464 146.404 143.594 145.727C143.698 145.049 143.828 144.359 143.984 143.656C144.115 142.927 144.245 142.25 144.375 141.625V122.523C144.375 122.003 144.388 121.599 144.414 121.312C144.414 121 144.453 120.766 144.531 120.609C144.688 120.245 144.961 119.958 145.352 119.75C145.742 119.542 146.159 119.385 146.602 119.281C147.044 119.151 147.474 119.073 147.891 119.047C148.307 119.021 148.633 119.008 148.867 119.008C149.31 119.008 149.609 119.125 149.766 119.359C149.948 119.594 150.039 120.01 150.039 120.609C150.039 120.531 149.974 121.169 149.844 122.523C149.74 123.878 149.648 125.818 149.57 128.344C150.352 127.12 151.198 125.948 152.109 124.828C153.021 123.708 153.971 122.719 154.961 121.859C155.951 121 156.966 120.31 158.008 119.789C159.076 119.268 160.156 119.008 161.25 119.008C163.203 119.008 164.635 119.633 165.547 120.883C166.458 122.107 166.914 123.773 166.914 125.883C166.914 127.211 166.823 128.695 166.641 130.336C166.484 131.951 166.289 133.604 166.055 135.297C165.846 136.964 165.651 138.604 165.469 140.219C165.312 141.807 165.234 143.266 165.234 144.594C165.234 146.312 165.768 147.172 166.836 147.172C167.174 147.172 167.565 147.003 168.008 146.664C168.477 146.299 169.049 145.635 169.727 144.672C170.43 143.708 171.263 142.393 172.227 140.727C173.19 139.034 174.336 136.859 175.664 134.203L176.055 133.383L177.656 134.594L177.266 135.414C175.703 138.539 174.31 141.104 173.086 143.109C171.888 145.115 170.794 146.703 169.805 147.875C168.815 149.047 167.891 149.867 167.031 150.336C166.172 150.779 165.312 151 164.453 151C163.906 151 163.359 150.922 162.812 150.766C162.266 150.609 161.784 150.336 161.367 149.945C160.951 149.555 160.612 149.034 160.352 148.383C160.091 147.706 159.961 146.846 159.961 145.805C159.961 144.242 160.065 142.484 160.273 140.531C160.482 138.578 160.716 136.625 160.977 134.672C161.237 132.719 161.471 130.883 161.68 129.164C161.888 127.419 161.992 126 161.992 124.906C161.992 123.943 161.784 123.174 161.367 122.602C160.951 122.003 160.326 121.703 159.492 121.703ZM199.766 141.312C199.766 142.797 199.896 144.047 200.156 145.062C200.417 146.078 200.872 146.586 201.523 146.586C201.914 146.586 202.331 146.404 202.773 146.039C203.242 145.648 203.776 145.023 204.375 144.164C204.974 143.305 205.651 142.198 206.406 140.844C207.188 139.464 208.073 137.784 209.062 135.805L210.234 133.383L211.836 134.594L210.664 137.016C209.57 139.203 208.542 141.169 207.578 142.914C206.641 144.633 205.742 146.091 204.883 147.289C204.023 148.487 203.177 149.411 202.344 150.062C201.536 150.688 200.729 151 199.922 151C199.062 151 198.333 150.766 197.734 150.297C197.161 149.828 196.68 149.19 196.289 148.383C195.898 147.549 195.599 146.599 195.391 145.531C195.182 144.438 195.039 143.279 194.961 142.055C194.336 143.305 193.646 144.477 192.891 145.57C192.135 146.638 191.341 147.576 190.508 148.383C189.701 149.19 188.854 149.828 187.969 150.297C187.083 150.766 186.198 151 185.312 151C184.01 151 182.747 150.727 181.523 150.18C180.299 149.633 179.206 148.799 178.242 147.68C177.305 146.56 176.549 145.154 175.977 143.461C175.404 141.742 175.117 139.724 175.117 137.406C175.117 134.698 175.469 132.224 176.172 129.984C176.875 127.719 177.826 125.779 179.023 124.164C180.221 122.523 181.602 121.26 183.164 120.375C184.727 119.464 186.367 119.008 188.086 119.008C189.128 119.008 190.091 119.242 190.977 119.711C191.862 120.18 192.63 120.753 193.281 121.43C193.958 122.081 194.518 122.784 194.961 123.539C195.404 124.268 195.703 124.893 195.859 125.414L196.328 121.625C196.38 121.13 196.615 120.714 197.031 120.375C197.474 120.036 197.956 119.776 198.477 119.594C198.997 119.385 199.505 119.242 200 119.164C200.495 119.06 200.846 119.008 201.055 119.008C201.367 119.008 201.576 119.06 201.68 119.164C201.784 119.268 201.836 119.477 201.836 119.789C201.836 120.18 201.719 120.974 201.484 122.172C201.276 123.344 201.042 124.854 200.781 126.703C200.547 128.526 200.312 130.674 200.078 133.148C199.87 135.622 199.766 138.344 199.766 141.312ZM195.469 131C195.469 129.802 195.286 128.63 194.922 127.484C194.557 126.312 194.062 125.284 193.438 124.398C192.812 123.487 192.083 122.758 191.25 122.211C190.443 121.664 189.583 121.391 188.672 121.391C187.552 121.391 186.497 121.716 185.508 122.367C184.544 122.992 183.698 123.891 182.969 125.062C182.266 126.208 181.706 127.602 181.289 129.242C180.872 130.857 180.664 132.641 180.664 134.594C180.664 138.5 181.276 141.482 182.5 143.539C183.724 145.57 185.352 146.586 187.383 146.586C188.268 146.586 189.18 146.234 190.117 145.531C191.081 144.802 191.953 143.773 192.734 142.445C193.542 141.091 194.193 139.451 194.688 137.523C195.208 135.596 195.469 133.422 195.469 131ZM218.633 146.039C219.102 146.039 219.635 145.74 220.234 145.141C220.859 144.516 221.523 143.669 222.227 142.602C222.93 141.534 223.672 140.284 224.453 138.852C225.234 137.419 226.042 135.87 226.875 134.203L227.266 133.383L228.867 134.594L228.477 135.414C227.096 138.174 225.859 140.544 224.766 142.523C223.698 144.477 222.695 146.091 221.758 147.367C220.82 148.617 219.922 149.542 219.062 150.141C218.229 150.714 217.37 151 216.484 151C215.312 151 214.297 150.622 213.438 149.867C212.604 149.086 211.901 147.797 211.328 146C210.781 144.177 210.378 141.781 210.117 138.812C209.831 135.844 209.688 132.172 209.688 127.797C209.688 121.599 209.948 116.286 210.469 111.859C210.99 107.406 211.693 103.76 212.578 100.922C213.49 98.0573 214.531 95.9609 215.703 94.6328C216.901 93.2786 218.151 92.6016 219.453 92.6016C220.234 92.6016 220.885 92.9271 221.406 93.5781C221.953 94.2031 222.227 95.349 222.227 97.0156C222.227 98.3177 222.122 99.8021 221.914 101.469C221.706 103.135 221.432 104.919 221.094 106.82C220.755 108.721 220.352 110.701 219.883 112.758C219.414 114.789 218.919 116.82 218.398 118.852C217.878 120.857 217.344 122.836 216.797 124.789C216.25 126.716 215.716 128.526 215.195 130.219C215.352 133.422 215.521 136.052 215.703 138.109C215.911 140.141 216.146 141.742 216.406 142.914C216.693 144.086 217.018 144.906 217.383 145.375C217.747 145.818 218.164 146.039 218.633 146.039ZM219.688 97.9531C219.688 97.4062 219.622 96.9766 219.492 96.6641C219.362 96.3516 219.154 96.1953 218.867 96.1953C218.581 96.1953 218.294 96.599 218.008 97.4062C217.721 98.2135 217.435 99.3073 217.148 100.688C216.888 102.068 216.641 103.669 216.406 105.492C216.198 107.315 216.003 109.255 215.82 111.312C215.638 113.344 215.495 115.427 215.391 117.562C215.286 119.698 215.221 121.755 215.195 123.734C215.82 121.443 216.393 119.099 216.914 116.703C217.461 114.281 217.943 111.938 218.359 109.672C218.776 107.406 219.102 105.271 219.336 103.266C219.57 101.234 219.688 99.4635 219.688 97.9531Z" fill="#F55381"/>
</svg>
